1.9Hzlow3min_grf.mot
version=1
nRows=12
nColumns 19
inDegrees=yes
endheader
time	1_ground_force_vx	1_ground_force_vy	1_ground_force_vz	1_ground_force_px	1_ground_force_py	1_ground_force_pz	1_ground_torque_x	1_ground_torque_y	1_ground_torque_z	2_ground_force_vx	2_ground_force_vy	2_ground_force_vz	2_ground_force_px	2_ground_force_py	2_ground_force_pz	2_ground_torque_x	2_ground_torque_y	2_ground_torque_z
            2.502500	            9.794720	          385.271770	          -50.236797	           -0.257450	            0.006129	           -0.384462	           -0.053116	           -2.089288	            0.272429	           17.642209	          350.108250	           60.136466	           -0.234073	            0.005873	           -0.763308	            0.137270	            2.724119	            0.467909
            2.503000	            9.607512	          391.946117	          -51.262424	           -0.257449	            0.006128	           -0.384237	           -0.051454	           -2.099125	            0.274543	           18.371053	          355.999519	           61.330375	           -0.233848	            0.005874	           -0.763404	            0.141954	            2.750825	            0.473903
            2.503500	            9.558258	          397.538443	          -52.201326	           -0.257282	            0.006128	           -0.384217	           -0.048719	           -2.026297	            0.266076	           19.053669	          361.706812	           62.429792	           -0.233991	            0.005872	           -0.763100	            0.145911	            2.769905	            0.478079
            2.504000	            9.553580	          402.592369	          -53.692925	           -0.257353	            0.006128	           -0.384152	           -0.047148	           -1.986825	            0.264979	           19.882195	          365.941092	           63.617748	           -0.234204	            0.005872	           -0.763128	            0.152622	            2.809077	            0.488349
            2.504500	            9.414168	          408.542517	          -53.988071	           -0.257148	            0.006129	           -0.384323	           -0.045602	           -1.978951	            0.261514	           20.192716	          370.910074	           64.808552	           -0.234435	            0.005871	           -0.763094	            0.158427	            2.910065	            0.508471
            2.505000	            9.319185	          414.134637	          -54.881000	           -0.257204	            0.006127	           -0.384037	           -0.047835	           -2.125745	            0.281703	           21.113592	          375.513141	           65.950862	           -0.234201	            0.005872	           -0.763133	            0.168104	            2.989794	            0.525093
            2.505500	            9.132288	          419.727193	          -55.865413	           -0.257403	            0.006129	           -0.384348	           -0.049351	           -2.268216	            0.301898	           21.604965	          382.323491	           67.382797	           -0.234422	            0.005872	           -0.763354	            0.169414	            2.997964	            0.528378
            2.506000	            9.220354	          424.599072	          -56.945312	           -0.257305	            0.006129	           -0.384524	           -0.049517	           -2.280257	            0.305818	           22.149048	          387.477627	           68.527230	           -0.234607	            0.005871	           -0.763359	            0.173133	            3.028802	            0.535658
            2.506500	            9.583750	          431.092442	          -57.789654	           -0.257325	            0.006128	           -0.384228	           -0.049415	           -2.222782	            0.297973	           22.741106	          392.265324	           69.201048	           -0.234500	            0.005871	           -0.763389	            0.178412	            3.077465	            0.542907
            2.507000	            9.718230	          434.701911	          -58.737515	           -0.257173	            0.006131	           -0.384844	           -0.047402	           -2.120334	            0.286502	           23.472129	          397.602664	           70.815339	           -0.234510	            0.005871	           -0.763181	            0.185263	            3.138240	            0.558939
            2.507500	            9.760968	          441.735457	          -59.441177	           -0.257055	            0.006129	           -0.384379	           -0.047822	           -2.164215	            0.291223	           24.059552	          403.679240	           71.540677	           -0.234668	            0.005871	           -0.763442	            0.188634	            3.164966	            0.560900
            2.508000	            9.942361	          446.964936	          -59.831916	           -0.257097	            0.006130	           -0.384670	           -0.048302	           -2.171447	            0.290676	           24.836639	          409.201894	           72.874037	           -0.234839	            0.005870	           -0.763322	            0.193889	            3.194463	            0.568896
